<svg xmlns="http://www.w3.org/2000/svg" width="900" height="300" viewBox="0 0 900 300" role="img" aria-label="Pranith Jain — Security Analyst">
  <!-- Portfolio tokens (light): flat white canvas (glow deliberately removed per
       DESIGN.md) · hairlines black 8/14% · muted #475569 ·
       brand-100 #ebf0fe / brand-700 #232ebf / brand-950 #121649 -->
  <rect width="900" height="300" fill="#ffffff"/>
  <g fill="#000000" opacity="0.05">
    <circle cx="46" cy="46" r="1.6"/><circle cx="130" cy="46" r="1.6"/><circle cx="214" cy="46" r="1.6"/>
    <circle cx="298" cy="46" r="1.6"/><circle cx="382" cy="46" r="1.6"/><circle cx="466" cy="46" r="1.6"/>
    <circle cx="550" cy="46" r="1.6"/><circle cx="634" cy="46" r="1.6"/><circle cx="718" cy="46" r="1.6"/>
    <circle cx="802" cy="46" r="1.6"/><circle cx="862" cy="46" r="1.6"/>
    <circle cx="46" cy="150" r="1.6"/><circle cx="214" cy="150" r="1.6"/><circle cx="382" cy="150" r="1.6"/>
    <circle cx="550" cy="150" r="1.6"/><circle cx="718" cy="150" r="1.6"/><circle cx="862" cy="150" r="1.6"/>
    <circle cx="46" cy="254" r="1.6"/><circle cx="214" cy="254" r="1.6"/><circle cx="382" cy="254" r="1.6"/>
    <circle cx="550" cy="254" r="1.6"/><circle cx="718" cy="254" r="1.6"/><circle cx="862" cy="254" r="1.6"/>
  </g>
  <rect x="285" y="56" width="330" height="28" rx="14" fill="#ebf0fe"/>
  <text x="450" y="74" text-anchor="middle" fill="#232ebf" font-family="JetBrains Mono,ui-monospace,Menlo,Consolas,monospace" font-size="11" letter-spacing="2">THREAT INTEL · DFIR · AI SECURITY</text>
  <text x="450" y="156" text-anchor="middle" fill="#121649" font-family="Bricolage Grotesque,Hanken Grotesk,system-ui,sans-serif" font-size="48" font-weight="800" letter-spacing="2">PRANITH JAIN</text>
  <text x="450" y="190" text-anchor="middle" fill="#475569" font-family="Hanken Grotesk,system-ui,sans-serif" font-size="17">Security Analyst · Email Security &amp; Threat Intelligence</text>
  <line x1="390" y1="212" x2="510" y2="212" stroke="#000000" stroke-opacity="0.14" stroke-width="1"/>
  <text x="450" y="238" text-anchor="middle" fill="#475569" font-family="JetBrains Mono,ui-monospace,Menlo,Consolas,monospace" font-size="10" letter-spacing="3">DETECTION ENGINEERING · OSINT · AI THREAT RESEARCH</text>
</svg>
